<svg xmlns="http://www.w3.org/2000/svg" width="16" height="16" viewBox="0 0 16 16"><path fill="#2e3436" fill-rule="evenodd" d="M2.4 8a5.6 5.6 0 1 0 11.2 0a5.6 5.6 0 1 0 -11.2 0Z M3.8 8a4.2 4.2 0 1 0 8.4 0a4.2 4.2 0 1 0 -8.4 0Z"/><path fill="#2e3436" d="M6.3 8a1.7 1.7 0 1 0 3.4 0a1.7 1.7 0 1 0 -3.4 0Z"/><path fill="#2e3436" d="M7.3 0.6h1.4v3.4H7.3Z"/><path fill="#2e3436" d="M7.3 12h1.4v3.4H7.3Z"/><path fill="#2e3436" d="M0.6 7.3h3.4v1.4H0.6Z"/><path fill="#2e3436" d="M12 7.3h3.4v1.4H12Z"/></svg>
