<svg xmlns="http://www.w3.org/2000/svg" width="128" height="128" viewBox="0 0 128 128" fill="none"><defs><linearGradient id="keyg1" x1="8" y1="52" x2="76" y2="112" gradientUnits="userSpaceOnUse"><stop offset="0" stop-color="#ffd9a8"/><stop offset="0.5" stop-color="#ffab5c"/><stop offset="1" stop-color="#f06a1a"/></linearGradient><filter id="keys2" x="-12" y="-12" width="152" height="152" filterUnits="userSpaceOnUse"><feDropShadow dx="0" dy="2.8" stdDeviation="3.2" flood-color="#591f05" flood-opacity="0.42"/></filter><radialGradient id="keyr3" cx="22" cy="62" r="30" gradientUnits="userSpaceOnUse"><stop offset="0" stop-color="#ffffff" stop-opacity="0.5"/><stop offset="1" stop-color="#ffffff" stop-opacity="0"/></radialGradient><mask id="keyk4" maskUnits="userSpaceOnUse" x="0" y="0" width="128" height="128"><path d="M16 58L72 52Q76 52 76 56V108Q76 112 72 112L16 106Q8 105 8 98V66Q8 59 16 58Z" fill="#ffffff"/></mask><clipPath id="keyc5"><path d="M16 58L72 52Q76 52 76 56V108Q76 112 72 112L16 106Q8 105 8 98V66Q8 59 16 58Z" fill="#000"/></clipPath><linearGradient id="keyg6" x1="30" y1="34" x2="98" y2="94" gradientUnits="userSpaceOnUse"><stop offset="0" stop-color="#ff9ec4"/><stop offset="0.5" stop-color="#e8488a"/><stop offset="1" stop-color="#a8215a"/></linearGradient><filter id="keys7" x="-12" y="-12" width="152" height="152" filterUnits="userSpaceOnUse"><feDropShadow dx="0" dy="2.8" stdDeviation="3.2" flood-color="#4c0a24" flood-opacity="0.42"/></filter><radialGradient id="keyr8" cx="44" cy="44" r="30" gradientUnits="userSpaceOnUse"><stop offset="0" stop-color="#ffffff" stop-opacity="0.5"/><stop offset="1" stop-color="#ffffff" stop-opacity="0"/></radialGradient><mask id="keyk9" maskUnits="userSpaceOnUse" x="0" y="0" width="128" height="128"><path d="M38 40L94 34Q98 34 98 38V90Q98 94 94 94L38 88Q30 87 30 80V48Q30 41 38 40Z" fill="#ffffff"/></mask><clipPath id="keyc10"><path d="M38 40L94 34Q98 34 98 38V90Q98 94 94 94L38 88Q30 87 30 80V48Q30 41 38 40Z" fill="#000"/></clipPath><linearGradient id="keyg11" x1="52" y1="16" x2="120" y2="76" gradientUnits="userSpaceOnUse"><stop offset="0" stop-color="#9fb0ff"/><stop offset="0.5" stop-color="#4f5fe0"/><stop offset="1" stop-color="#2a2f9e"/></linearGradient><filter id="keys12" x="-12" y="-12" width="152" height="152" filterUnits="userSpaceOnUse"><feDropShadow dx="0" dy="2.8" stdDeviation="3.2" flood-color="#141457" flood-opacity="0.42"/></filter><radialGradient id="keyr13" cx="66" cy="26" r="30" gradientUnits="userSpaceOnUse"><stop offset="0" stop-color="#ffffff" stop-opacity="0.5"/><stop offset="1" stop-color="#ffffff" stop-opacity="0"/></radialGradient><mask id="keyk14" maskUnits="userSpaceOnUse" x="0" y="0" width="128" height="128"><path d="M60 22L116 16Q120 16 120 20V72Q120 76 116 76L60 70Q52 69 52 62V30Q52 23 60 22Z" fill="#ffffff"/></mask><clipPath id="keyc15"><path d="M60 22L116 16Q120 16 120 20V72Q120 76 116 76L60 70Q52 69 52 62V30Q52 23 60 22Z" fill="#000"/></clipPath></defs><g filter="url(#keys2)"><g transform="translate(0 4)"><path d="M16 58L72 52Q76 52 76 56V108Q76 112 72 112L16 106Q8 105 8 98V66Q8 59 16 58Z" fill="#86300a"/></g><path d="M16 58L72 52Q76 52 76 56V108Q76 112 72 112L16 106Q8 105 8 98V66Q8 59 16 58Z" fill="url(#keyg1)"/></g><g mask="url(#keyk4)"><rect width="128" height="128" fill="url(#keyr3)"/></g><g clip-path="url(#keyc5)"><path d="M16 58L72 52Q76 52 76 56V108Q76 112 72 112L16 106Q8 105 8 98V66Q8 59 16 58Z" fill="none" stroke="#ffffff" stroke-opacity="0.34" stroke-width="3.2"/></g><g filter="url(#keys7)"><g transform="translate(0 4)"><path d="M38 40L94 34Q98 34 98 38V90Q98 94 94 94L38 88Q30 87 30 80V48Q30 41 38 40Z" fill="#6e1238"/></g><path d="M38 40L94 34Q98 34 98 38V90Q98 94 94 94L38 88Q30 87 30 80V48Q30 41 38 40Z" fill="url(#keyg6)"/></g><g mask="url(#keyk9)"><rect width="128" height="128" fill="url(#keyr8)"/></g><g clip-path="url(#keyc10)"><path d="M38 40L94 34Q98 34 98 38V90Q98 94 94 94L38 88Q30 87 30 80V48Q30 41 38 40Z" fill="none" stroke="#ffffff" stroke-opacity="0.34" stroke-width="3.2"/></g><g filter="url(#keys12)"><g transform="translate(0 4)"><path d="M60 22L116 16Q120 16 120 20V72Q120 76 116 76L60 70Q52 69 52 62V30Q52 23 60 22Z" fill="#1b1f6a"/></g><path d="M60 22L116 16Q120 16 120 20V72Q120 76 116 76L60 70Q52 69 52 62V30Q52 23 60 22Z" fill="url(#keyg11)"/></g><g mask="url(#keyk14)"><rect width="128" height="128" fill="url(#keyr13)"/></g><g clip-path="url(#keyc15)"><path d="M60 22L116 16Q120 16 120 20V72Q120 76 116 76L60 70Q52 69 52 62V30Q52 23 60 22Z" fill="none" stroke="#ffffff" stroke-opacity="0.34" stroke-width="3.2"/></g><path d="M60 40Q72 28 84 38T104 36" stroke="#ffffff" stroke-width="4" stroke-linecap="round" fill="none" opacity="0.9"/><circle cx="104" cy="36" r="5.5" fill="#ffffff"/></svg>
